<?xml version="1.0" standalone="no"?>
<!DOCTYPE svg PUBLIC "-//W3C//DTD SVG 20010904//EN" "http://www.w3.org/TR/2001/REC-SVG-20010904/DTD/svg10.dtd">
<!-- Created using Krita: https://krita.org -->
<svg xmlns="http://www.w3.org/2000/svg" 
    xmlns:xlink="http://www.w3.org/1999/xlink"
    xmlns:krita="http://krita.org/namespaces/svg/krita"
    xmlns:sodipodi="http://sodipodi.sourceforge.net/DTD/sodipodi-0.dtd"
    width="240pt"
    height="240pt"
    viewBox="0 0 240 240">
<defs/>
<path id="shape0" transform="translate(308.260942000601, 126.464815667461)" fill="none" stroke="#acc681" stroke-width="19.2" stroke-linecap="square" stroke-linejoin="bevel" d="M1.02841 0C0.722146 0.157506 -0.243628 0.52033 0.0574294 0.353079" sodipodi:nodetypes="cc"/><g id="group0" transform="translate(7.75559037370507, 19.3161842190983)" fill="none">
  <rect id="shape1" transform="matrix(1.03542091119365 0.134424921674413 -0.146131727074665 1.17434762628523 19.6401041188349 3.06738240262778)" fill="#f1e2c5" fill-rule="evenodd" stroke="#5f3e1d" stroke-width="1.2" stroke-linecap="square" stroke-linejoin="bevel" width="91.2" height="28.8"/>
  <rect id="shape2" transform="matrix(1.03542091119365 0.134424921674413 -0.146131727074665 1.17434762628523 15.4315103790846 36.8885940396423)" fill="#efe8da" fill-rule="evenodd" stroke="#5f3e1d" stroke-width="1.2" stroke-linecap="square" stroke-linejoin="bevel" width="201.6" height="105.6"/>
  <path id="shape3" transform="matrix(1.03542091119365 0.134424921674413 -0.146131727074665 1.17434762628523 56.6545322928583 70.8800936868224)" fill="none" stroke="#5f3e1d" stroke-width="1.2" stroke-linecap="square" stroke-linejoin="miter" stroke-miterlimit="2" d="M0 0L134.4 0" sodipodi:nodetypes="cc"/>
  <path id="shape4" transform="matrix(1.03542091119365 0.134424921674413 -0.146131727074665 1.17434762628523 48.2373448133577 138.522516960851)" fill="none" stroke="#5f3e1d" stroke-width="1.2" stroke-linecap="square" stroke-linejoin="miter" stroke-miterlimit="2" d="M0 0L134.4 0" sodipodi:nodetypes="cc"/>
  <path id="shape5" transform="matrix(1.03542091119365 0.134424921674413 -0.146131727074665 1.17434762628523 52.445938553108 104.701305323837)" fill="none" stroke="#5f3e1d" stroke-width="1.2" stroke-linecap="square" stroke-linejoin="miter" stroke-miterlimit="2" d="M0 0L134.4 0" sodipodi:nodetypes="cc"/>
  <rect id="shape6" transform="matrix(1.03542091119365 0.134424921674413 -0.146131727074665 1.17434762628523 32.5058627141691 62.0170269604674)" fill="#f1e2c5" fill-rule="evenodd" stroke="#5f3e1d" stroke-width="1.2" stroke-linecap="square" stroke-linejoin="bevel" width="9.6" height="9.60000000000001"/>
  <rect id="shape7" transform="matrix(1.03542091119365 0.134424921674413 -0.146131727074665 1.17434762628523 28.2972689744188 95.838238597482)" fill="#f1e2c5" fill-rule="evenodd" stroke="#4c2d0e" stroke-width="1.2" stroke-linecap="square" stroke-linejoin="bevel" width="9.6" height="9.59999999999999"/>
  <rect id="shape8" transform="matrix(1.03542091119365 0.134424921674413 -0.146131727074665 1.17434762628523 24.0886752346684 129.659450234496)" fill="#f1e2c5" fill-rule="evenodd" stroke="#5f3e1d" stroke-width="1.2" stroke-linecap="square" stroke-linejoin="bevel" width="9.6" height="9.59999999999998"/>
  <path id="shape9" transform="matrix(1.03542091119365 0.134424921674413 -0.146131727074665 1.17434762628523 28.8787125763356 9.99473025687124)" fill="none" stroke="#4c2d0e" stroke-width="1.2" stroke-linecap="square" stroke-linejoin="miter" stroke-miterlimit="2" d="M0 0L0 14.4" sodipodi:nodetypes="cc"/>
  <path id="shape10" transform="matrix(1.03542091119365 0.134424921674413 -0.146131727074665 1.17434762628523 28.8787125763356 9.99473025687124)" fill="none" stroke="#4c2d0e" stroke-width="1.2" stroke-linecap="square" stroke-linejoin="miter" stroke-miterlimit="2" d="M0 0L9.6 0" sodipodi:nodetypes="cc"/>
  <path id="shape11" transform="matrix(1.03542091119365 0.134424921674413 -0.146131727074665 1.17434762628523 38.8187533237946 11.2852095049456)" fill="none" stroke="#4c2d0e" stroke-width="1.2" stroke-linecap="square" stroke-linejoin="miter" stroke-miterlimit="2" d="M0 0L0 9.6" sodipodi:nodetypes="cc"/>
  <path id="shape12" transform="matrix(1.03542091119365 0.134424921674413 -0.146131727074665 1.17434762628523 27.4758479964188 21.2684674692094)" fill="none" stroke="#4c2d0e" stroke-width="1.2" stroke-linecap="square" stroke-linejoin="miter" stroke-miterlimit="2" d="M9.6 0L0 0" sodipodi:nodetypes="cc"/>
  <path id="shape13" transform="matrix(1.03542091119365 0.134424921674413 -0.146131727074665 1.17434762628523 27.4758479964188 21.2684674692094)" fill="none" stroke="#4c2d0e" stroke-width="1.2" stroke-linecap="square" stroke-linejoin="miter" stroke-miterlimit="2" d="M0 0L9.6 9.6" sodipodi:nodetypes="cc"/>
  <path id="shape14" transform="matrix(1.03542091119365 0.134424921674413 -0.146131727074665 1.17434762628523 26.7744157064604 26.9053360753785)" fill="none" stroke="#4c2d0e" stroke-width="1.2" stroke-linecap="square" stroke-linejoin="miter" stroke-miterlimit="2" d="M0 0L0 4.8" sodipodi:nodetypes="cc"/>
  <path id="shape15" transform="matrix(1.03542091119365 0.134424921674413 -0.146131727074665 1.17434762628523 43.7887736975241 11.9304491289828)" fill="none" stroke="#4c2d0e" stroke-width="1.2" stroke-linecap="square" stroke-linejoin="miter" stroke-miterlimit="2" d="M0 0L0 19.2" sodipodi:nodetypes="cc"/>
  <path id="shape16" transform="matrix(1.03542091119365 0.134424921674413 -0.146131727074665 1.17434762628523 43.7887736975241 11.9304491289828)" fill="none" stroke="#4c2d0e" stroke-width="1.2" stroke-linecap="square" stroke-linejoin="miter" stroke-miterlimit="2" d="M0 0L9.6 0" sodipodi:nodetypes="cc"/>
  <path id="shape17" transform="matrix(1.03542091119365 0.134424921674413 -0.146131727074665 1.17434762628523 42.3859091176074 23.204186341321)" fill="none" stroke="#4c2d0e" stroke-width="1.2" stroke-linecap="square" stroke-linejoin="miter" stroke-miterlimit="2" d="M0 0L9.6 0" sodipodi:nodetypes="cc"/>
  <path id="shape18" transform="matrix(1.03542091119365 0.134424921674413 -0.146131727074665 1.17434762628523 40.9830445376906 34.4779235536591)" fill="none" stroke="#4c2d0e" stroke-width="1.2" stroke-linecap="square" stroke-linejoin="miter" stroke-miterlimit="2" d="M0 0L9.6 0" sodipodi:nodetypes="cc"/>
  <path id="shape19" transform="matrix(1.03542091119365 0.134424921674413 -0.146131727074665 1.17434762628523 58.6988348187127 13.8661680010943)" fill="none" stroke="#4c2d0e" stroke-width="1.2" stroke-linecap="square" stroke-linejoin="miter" stroke-miterlimit="2" d="M0 0L0 19.2" sodipodi:nodetypes="cc"/>
  <path id="shape20" transform="matrix(1.03542091119365 0.134424921674413 -0.146131727074665 1.17434762628523 58.6988348187127 13.8661680010943)" fill="none" stroke="#4c2d0e" stroke-width="1.2" stroke-linecap="square" stroke-linejoin="miter" stroke-miterlimit="2" d="M0 0L9.6 0" sodipodi:nodetypes="cc"/>
  <path id="shape21" transform="matrix(1.03542091119365 0.134424921674413 -0.146131727074665 1.17434762628523 55.8931056588792 36.4136424257707)" fill="none" stroke="#4c2d0e" stroke-width="1.2" stroke-linecap="square" stroke-linejoin="miter" stroke-miterlimit="2" d="M0 0L9.6 0" sodipodi:nodetypes="cc"/>
  <path id="shape22" transform="matrix(1.03542091119365 0.134424921674413 -0.146131727074665 1.17434762628523 73.6088959399013 15.8018868732059)" fill="none" stroke="#4c2d0e" stroke-width="1.2" stroke-linecap="square" stroke-linejoin="miter" stroke-miterlimit="2" d="M0 0L0 19.2" sodipodi:nodetypes="cc"/>
  <path id="shape23" transform="matrix(1.03542091119365 0.134424921674413 -0.146131727074665 1.17434762628523 78.5789163136308 16.4471264972431)" fill="none" stroke="#4c2d0e" stroke-width="1.2" stroke-linecap="square" stroke-linejoin="miter" stroke-miterlimit="2" d="M0 0L0 19.2" sodipodi:nodetypes="cc"/>
  <path id="shape24" transform="matrix(1.03542091119365 0.134424921674413 -0.146131727074665 1.17434762628523 78.5789163136308 16.4471264972431)" fill="none" stroke="#4c2d0e" stroke-width="1.2" stroke-linecap="square" stroke-linejoin="miter" stroke-miterlimit="2" d="M0 0L9.6 0" sodipodi:nodetypes="cc"/>
  <path id="shape25" transform="matrix(1.03542091119365 0.134424921674413 -0.146131727074665 1.17434762628523 88.5189570610898 17.7376057453174)" fill="none" stroke="#4c2d0e" stroke-width="1.2" stroke-linecap="square" stroke-linejoin="miter" stroke-miterlimit="2" d="M0 0L0 9.6" sodipodi:nodetypes="cc"/>
  <path id="shape26" transform="matrix(1.03542091119365 0.134424921674413 -0.146131727074665 1.17434762628523 77.176051733714 27.7208637095813)" fill="none" stroke="#4c2d0e" stroke-width="1.2" stroke-linecap="square" stroke-linejoin="miter" stroke-miterlimit="2" d="M9.6 0L0 0" sodipodi:nodetypes="cc"/>
  <path id="shape27" transform="matrix(1.03542091119365 0.134424921674413 -0.146131727074665 1.17434762628523 93.4889774348194 18.3828453693546)" fill="none" stroke="#4c2d0e" stroke-width="1.2" stroke-linecap="square" stroke-linejoin="miter" stroke-miterlimit="2" d="M0 0L0 19.2" sodipodi:nodetypes="cc"/>
  <path id="shape28" transform="matrix(1.03542091119365 0.134424921674413 -0.146131727074665 1.17434762628523 93.4889774348194 18.3828453693546)" fill="none" stroke="#4c2d0e" stroke-width="1.2" stroke-linecap="square" stroke-linejoin="miter" stroke-miterlimit="2" d="M0 0L9.6 0" sodipodi:nodetypes="cc"/>
  <path id="shape29" transform="matrix(1.03542091119365 0.134424921674413 -0.146131727074665 1.17434762628523 92.0861128549026 29.6565825816928)" fill="none" stroke="#4c2d0e" stroke-width="1.2" stroke-linecap="square" stroke-linejoin="miter" stroke-miterlimit="2" d="M0 0L9.6 0" sodipodi:nodetypes="cc"/>
  <path id="shape30" transform="matrix(1.03542091119365 0.134424921674413 -0.146131727074665 1.17434762628523 90.6832482749858 40.930319794031)" fill="none" stroke="#4c2d0e" stroke-width="1.2" stroke-linecap="square" stroke-linejoin="miter" stroke-miterlimit="2" d="M0 0L9.6 0" sodipodi:nodetypes="cc"/>
  <path id="shape31" transform="matrix(1.28056261463324 0 0 1.24473491183537 136.796285252831 1.4210854715202e-14)" fill="#a7c27c" fill-rule="evenodd" stroke="#336e0f" stroke-width="1.2" stroke-linecap="square" stroke-linejoin="bevel" d="M30.1005 23.0224C30.9365 19.4785 38.041 17.0884 34.8789 10.5888C30.8293 2.26465 23.7199 9.76997 24.2869 16.1962C24.4866 18.4594 23.7893 10.8258 23.2366 9.3783C20.3635 1.85373 7.85735 -5.0259 2.81804 5.05255C1.51757 7.65344 1.68813 11.2533 2.17717 14.0245C2.88461 18.0332 7.51469 22.5949 11.8613 21.1272C16.453 19.5768 0.731895 20.6403 0.0587695 28.942C-1.04686 42.5779 13.7334 37.6232 20.3171 32.983C25.6746 29.207 27.5471 28.8101 30.1005 23.0224" sodipodi:nodetypes="cccccccccc"/>
  <path id="shape32" transform="matrix(1.28056261463324 0 0 1.24473491183537 156.196139067676 28.9236135802319)" fill="#ffb38c" fill-rule="evenodd" stroke="#c5571f" stroke-width="1.2" stroke-linecap="square" stroke-linejoin="bevel" d="M17.4768 3.55271e-15C-26.4464 3.83851 24.1841 66.9667 41.4768 57.6C50.1169 52.92 32.8257 5.24503 17.4768 0" sodipodi:nodetypes="ccc"/>
  <path id="shape33" transform="matrix(1.28056261463324 0 0 1.24473491183537 159.142709454377 51.5795046410792)" fill="none" stroke="#c5571f" stroke-width="1.2" stroke-linecap="square" stroke-linejoin="bevel" d="M0 4.37915C3.47781 4.37915 5.97323 2.22253 8.47362 0" sodipodi:nodetypes="cc"/>
  <path id="shape34" transform="matrix(1.28056261463324 0 0 1.24473491183537 168.375176876625 70.1479361642733)" fill="none" stroke="#c5571f" stroke-width="1.2" stroke-linecap="square" stroke-linejoin="bevel" d="M0 4.55716C3.28661 4.55716 5.95049 2.70507 8.13539 0" sodipodi:nodetypes="cc"/>
  <path id="shape35" transform="matrix(1.28056261463324 0 0 1.24473491183537 185.700300928253 89.048738180126)" fill="none" stroke="#c5571f" stroke-width="1.2" stroke-linecap="square" stroke-linejoin="bevel" d="M0 2.90163C1.59122 2.90163 2.4254 1.31341 3.43573 0" sodipodi:nodetypes="cc"/>
  <path id="shape36" transform="matrix(0.958735984920008 0.285383490388745 -0.265284663191871 1.08099168433359 149.912104323298 101.852346843824)" fill="#b4d49b" fill-rule="evenodd" stroke="#428e00" stroke-width="1.2" stroke-linecap="square" stroke-linejoin="bevel" d="M5.03392 39.4051C1.62411 39.4051 -3.05553 1.97263 2.74134 0.0151042C5.19981 -0.815086 7.38188 32.8388 5.92 36.5412C5.79135 36.867 5.85697 35.787 5.83561 35.4084C5.69475 32.9111 6.25647 -0.751445 10.5052 1.93865C12.0268 2.90213 5.98953 38.7426 6.2435 38.7426C6.73842 38.7426 11.0152 14.4224 12.3055 11.7488C12.7772 10.7713 16.5616 6.81627 16.7781 9.99619C17.4233 19.4734 3.59569 51.1681 5.62464 34.7245" sodipodi:nodetypes="ccccccccc"/>
  <path id="shape37" transform="matrix(0.958735984920008 0.285383490388745 -0.265284663191871 1.08099168433359 117.065741567354 130.927502376484)" fill="#fce4ff" fill-rule="evenodd" stroke="#893d88" stroke-width="1.2" stroke-linecap="square" stroke-linejoin="bevel" d="M37.1522 0.607899C34.372 0.380686 27.0331 -0.541075 26.4383 0.450188C24.0771 4.3855 25.7626 12.9344 22.5753 18.216C16.7029 27.9473 -6.84803 31.3055 1.94315 48.2114C10.8787 65.3948 23.0354 48.5975 28.7169 51.7538C33.3021 54.3011 35.2472 61.2482 43.5814 59.6399C49.7186 58.4555 51.2323 48.4784 55.2237 51.8785C62.7766 58.3123 76.5042 44.9321 74.0045 36.2666C69.3127 20.0018 43.2172 18.2971 37.1522 0.607899" sodipodi:nodetypes="ccccccccc"/>
  <path id="shape38" transform="matrix(0.958735984920008 0.285383490388745 -0.265284663191871 1.08099168433359 138.233090741048 138.320899126018)" fill="none" stroke="#9e6a9d" stroke-width="1.2" stroke-linecap="square" stroke-linejoin="bevel" d="M4.54118 49.7371C4.54118 54.5043 -0.363708 38.0176 0.0215641 33.266C0.704025 24.8491 5.55038 20.7474 6.71299 12.3186C6.78432 11.8014 6.7262 0.15581 7.19364 0" sodipodi:nodetypes="cccc"/>
  <path id="shape39" transform="matrix(0.958735984920008 0.285383490388745 -0.265284663191871 1.08099168433359 150.106980228089 141.52361131721)" fill="none" stroke="#9e6a9d" stroke-width="1.2" stroke-linecap="square" stroke-linejoin="bevel" d="M17.407 50.3614C26.0944 24.885 6.00417 20.6202 0.42417 2.58238C0.324914 2.05303 -0.328045 -0.322278 0.210549 0.0367784" sodipodi:nodetypes="ccc"/>
  <ellipse id="shape40" transform="matrix(1.08840602687619 -0.00530746226502672 0.0058503396990643 1.14070442458691 8.15691512145846 116.404405610851)" rx="33.6" ry="27.6" cx="33.6" cy="27.6" fill="#f38b82" fill-rule="evenodd" stroke="#9a4036" stroke-width="1" stroke-linecap="square" stroke-linejoin="bevel"/>
  <path id="shape41" transform="matrix(1.08840602687619 -0.00530746226502672 0.0058503396990643 1.14070442458691 23.815921093198 113.590287535225)" fill="#6e855f" fill-rule="evenodd" stroke="#2d462a" stroke-width="1.2" stroke-linecap="square" stroke-linejoin="bevel" d="M6.60866 0.000316543C6.60866 -0.0581791 17.5767 8.01172 19.0174 6.67827C36.073 -9.10676 20.4528 8.69867 26.9261 8.69867C28.0287 8.69867 36.1362 11.5372 35.8688 12.5268C35.5807 13.5935 29.7666 13.0014 28.9427 13.2048C20.3674 15.3212 23.8736 22.7275 18.616 24.6739C14.5952 26.1624 20.567 8.5348 5.36395 23.5433C2.71179 26.1615 9.39741 12.7879 5.97673 11.7399C-3.12678 8.95083 -1.27016 8.86881 7.75762 8.86881C10.787 8.86881 4.26516 1.40136 5.36395 0.723407" sodipodi:nodetypes="cccccccccc"/>
  <path id="shape42" transform="matrix(1 0 0 1.02142741198525 59.427676096752 131.589831883772)" fill="#ff9084" fill-rule="evenodd" stroke="#d24844" stroke-width="1.2" stroke-linecap="square" stroke-linejoin="bevel" d="M0.838577 7.40416C-1.66869 7.40416 4.45021 3.925 6.22313 2.15211C11.5061 -3.13072 14.4858 2.1005 15.955 9.32403C17.0029 14.4757 15.5082 17.5735 11.9387 21.748C2.18895 33.4062 20.8561 3.9119 0 7.6469" sodipodi:nodetypes="ccccc"/>
 </g>
</svg>
