<?xml version="1.0" standalone="no"?>
<!DOCTYPE svg PUBLIC "-//W3C//DTD SVG 20010904//EN" "http://www.w3.org/TR/2001/REC-SVG-20010904/DTD/svg10.dtd">
<!-- Created using Krita: https://krita.org -->
<svg xmlns="http://www.w3.org/2000/svg" 
    xmlns:xlink="http://www.w3.org/1999/xlink"
    xmlns:krita="http://krita.org/namespaces/svg/krita"
    xmlns:sodipodi="http://sodipodi.sourceforge.net/DTD/sodipodi-0.dtd"
    width="240pt"
    height="240pt"
    viewBox="0 0 240 240">
<defs/>
<rect id="shape0" fill="#aac7fe" fill-rule="evenodd" stroke="#2b63a7" stroke-width="4.8" stroke-linecap="square" stroke-linejoin="bevel" width="240" height="240"/><rect id="shape1" transform="translate(252, 28.32)" fill="#77b3fe" fill-rule="evenodd" width="0.240000000000009" height="1.2"/><rect id="shape2" transform="translate(144.48, 46.56)" fill="none" width="70.08" height="38.4"/><rect id="shape3" transform="matrix(1 0.00354523676772466 2.44921270764475e-16 1 21.6 19.0213200669067)" fill="#fee4b3" fill-rule="evenodd" stroke="#000000" stroke-width="4.8" stroke-linecap="square" stroke-linejoin="bevel" width="100.8" height="38.4"/><rect id="shape4" transform="translate(19.2, 57.6)" fill="#f1e2c5" fill-rule="evenodd" stroke="#000000" stroke-width="4.8" stroke-linecap="square" stroke-linejoin="bevel" width="201.6" height="163.2"/><path id="shape5" transform="translate(31.2, 28.6213200669067)" fill="none" stroke="#000000" stroke-width="4.8" stroke-linecap="square" stroke-linejoin="miter" stroke-miterlimit="2" d="M0 0L0 19.2" sodipodi:nodetypes="cc"/><path id="shape6" transform="translate(31.2, 28.6213200669067)" fill="none" stroke="#000000" stroke-width="4.8" stroke-linecap="square" stroke-linejoin="miter" stroke-miterlimit="2" d="M0 0L9.6 0" sodipodi:nodetypes="cc"/><path id="shape7" transform="translate(40.8, 28.6213200669067)" fill="none" stroke="#000000" stroke-width="4.8" stroke-linecap="square" stroke-linejoin="miter" stroke-miterlimit="2" d="M0 0L0 9.6" sodipodi:nodetypes="cc"/><path id="shape8" transform="translate(31.2, 38.2213200669067)" fill="none" stroke="#000000" stroke-width="4.8" stroke-linecap="square" stroke-linejoin="miter" stroke-miterlimit="2" d="M9.6 0L0 0" sodipodi:nodetypes="cc"/><path id="shape9" transform="translate(50.4, 28.6213200669067)" fill="none" stroke="#000000" stroke-width="4.8" stroke-linecap="square" stroke-linejoin="miter" stroke-miterlimit="2" d="M0 0L0 19.2" sodipodi:nodetypes="cc"/><path id="shape10" transform="translate(50.4, 28.6213200669067)" fill="none" stroke="#000000" stroke-width="4.8" stroke-linecap="square" stroke-linejoin="miter" stroke-miterlimit="2" d="M0 0L4.8 0" sodipodi:nodetypes="cc"/><path id="shape11" transform="translate(50.4, 38.2213200669067)" fill="none" stroke="#000000" stroke-width="4.8" stroke-linecap="square" stroke-linejoin="miter" stroke-miterlimit="2" d="M0 0L4.8 0" sodipodi:nodetypes="cc"/><path id="shape12" transform="translate(50.4, 47.8213200669067)" fill="none" stroke="#000000" stroke-width="4.8" stroke-linecap="square" stroke-linejoin="miter" stroke-miterlimit="2" d="M0 0L4.8 0" sodipodi:nodetypes="cc"/><path id="shape13" transform="translate(64.8, 28.6213200669067)" fill="none" stroke="#000000" stroke-width="4.8" stroke-linecap="square" stroke-linejoin="miter" stroke-miterlimit="2" d="M0 0L0 19.2" sodipodi:nodetypes="cc"/><path id="shape14" transform="translate(64.8, 28.6213200669067)" fill="none" stroke="#000000" stroke-width="4.8" stroke-linecap="square" stroke-linejoin="miter" stroke-miterlimit="2" d="M0 0L4.8 0" sodipodi:nodetypes="cc"/><path id="shape15" transform="translate(64.8, 47.8213200669067)" fill="none" stroke="#000000" stroke-width="4.8" stroke-linecap="square" stroke-linejoin="miter" stroke-miterlimit="2" d="M0 0L4.8 0" sodipodi:nodetypes="cc"/><path id="shape16" transform="translate(79.2, 28.6213200669067)" fill="none" stroke="#000000" stroke-width="4.8" stroke-linecap="square" stroke-linejoin="miter" stroke-miterlimit="2" d="M0 0L0 19.2" sodipodi:nodetypes="cc"/><path id="shape17" transform="translate(88.8, 28.6213200669067)" fill="none" stroke="#000000" stroke-width="4.8" stroke-linecap="square" stroke-linejoin="miter" stroke-miterlimit="2" d="M0 0L0 19.2" sodipodi:nodetypes="cc"/><path id="shape18" transform="translate(88.8, 28.6213200669067)" fill="none" stroke="#000000" stroke-width="4.8" stroke-linecap="square" stroke-linejoin="miter" stroke-miterlimit="2" d="M0 0L9.6 0" sodipodi:nodetypes="cc"/><path id="shape19" transform="translate(98.4, 28.6213200669067)" fill="none" stroke="#000000" stroke-width="4.8" stroke-linecap="square" stroke-linejoin="miter" stroke-miterlimit="2" d="M0 0L0 9.6" sodipodi:nodetypes="cc"/><path id="shape20" transform="translate(88.8, 38.2213200669067)" fill="none" stroke="#000000" stroke-width="4.8" stroke-linecap="square" stroke-linejoin="miter" stroke-miterlimit="2" d="M9.6 0L0 0" sodipodi:nodetypes="cc"/><path id="shape21" transform="translate(108, 28.6213200669067)" fill="none" stroke="#000000" stroke-width="4.8" stroke-linecap="square" stroke-linejoin="miter" stroke-miterlimit="2" d="M0 0L0 19.2" sodipodi:nodetypes="cc"/><path id="shape22" transform="translate(108, 28.6213200669067)" fill="none" stroke="#000000" stroke-width="4.8" stroke-linecap="square" stroke-linejoin="miter" stroke-miterlimit="2" d="M0 0L4.8 0" sodipodi:nodetypes="cc"/><path id="shape23" transform="translate(108, 38.2213200669067)" fill="none" stroke="#000000" stroke-width="4.8" stroke-linecap="square" stroke-linejoin="miter" stroke-miterlimit="2" d="M0 0L4.8 0" sodipodi:nodetypes="cc"/><path id="shape24" transform="translate(108, 47.8213200669067)" fill="none" stroke="#000000" stroke-width="4.8" stroke-linecap="square" stroke-linejoin="miter" stroke-miterlimit="2" d="M0 0L4.8 0" sodipodi:nodetypes="cc"/><path id="shape25" transform="translate(33.6, 38.4)" fill="none" stroke="#000000" stroke-width="4.8" stroke-linecap="square" stroke-linejoin="miter" stroke-miterlimit="2" d="M0 0L9.6 9.6" sodipodi:nodetypes="cc"/><rect id="shape26" transform="translate(38.4, 86.4)" fill="#fee4b3" fill-rule="evenodd" stroke="#000000" stroke-width="4.8" stroke-linecap="square" stroke-linejoin="bevel" width="19.2" height="19.2"/><rect id="shape27" transform="translate(38.4, 129.6)" fill="#fee4b3" fill-rule="evenodd" stroke="#000000" stroke-width="4.8" stroke-linecap="square" stroke-linejoin="bevel" width="19.2" height="19.2"/><rect id="shape28" transform="translate(38.4, 172.8)" fill="#fee4b3" fill-rule="evenodd" stroke="#000000" stroke-width="4.8" stroke-linecap="square" stroke-linejoin="bevel" width="19.2" height="19.2"/><path id="shape29" transform="translate(72, 96)" fill="none" stroke="#000000" stroke-width="4.8" stroke-linecap="square" stroke-linejoin="miter" stroke-miterlimit="2" d="M0 0L129.6 0" sodipodi:nodetypes="cc"/><path id="shape30" transform="translate(67.2, 139.2)" fill="none" stroke="#000000" stroke-width="4.8" stroke-linecap="square" stroke-linejoin="miter" stroke-miterlimit="2" d="M0 0L134.4 0" sodipodi:nodetypes="cc"/><path id="shape31" transform="translate(67.2, 182.4)" fill="none" stroke="#000000" stroke-width="4.8" stroke-linecap="square" stroke-linejoin="miter" stroke-miterlimit="2" d="M0 0L134.4 0" sodipodi:nodetypes="cc"/><path id="shape32" transform="translate(133.423215593917, 6.63137101836102)" fill="#59932b" fill-rule="evenodd" stroke="#297f00" stroke-width="4.8" stroke-linecap="square" stroke-linejoin="bevel" d="M42.8727 46.6528C36.3677 53.1577 28.3302 57.1532 18.9617 55.573C9.43532 53.9661 -10.7288 40.7617 7.13304 33.1068C11.6207 31.1835 18.831 40.8458 21.343 36.6592C25.323 30.026 -0.539196 13.7355 20.9917 1.95466C37.5641 -7.11313 38.6956 17.754 38.6956 27.7391C38.6956 31.5613 42.9784 21.3434 45.703 18.6628C50.0318 14.4038 68.9242 7.11162 71.9173 16.3401C78.3774 36.2584 53.8766 42.7963 40.6085 47.2189" sodipodi:nodetypes="ccccccccc"/><path id="shape33" transform="matrix(0.997237016418934 0.0742854836685384 -0.0742854836685384 0.997237016418934 157.176786021179 43.8065564971706)" fill="#fe8b00" fill-rule="evenodd" stroke="#b74100" stroke-width="4.8" stroke-linecap="square" stroke-linejoin="bevel" d="M40.9951 0.717447C40.9951 -2.4654 23.4356 5.9406 22.1094 6.49304C15.4582 9.26371 4.82133 15.0234 1.33685 22.039C-9.59181 44.0428 49.4247 113.732 71.467 108.185C90.233 103.462 62.5728 37.2086 57.9046 26.4492C55.5379 20.9944 52.5807 12.8652 49.0151 8.23875C44.9178 0.839041 36.6122 -0.822632 40.9951 0.717447" sodipodi:nodetypes="ccccccc"/><path id="shape34" transform="translate(160.270641872692, 80.1031158528261)" fill="none" stroke="#b74100" stroke-width="4.8" stroke-linecap="square" stroke-linejoin="bevel" d="M0 11.8089C6.96068 14.1291 17.3316 3.47228 22.6227 0" sodipodi:nodetypes="cc"/><path id="shape35" transform="translate(172.353024722564, 105.262919671426)" fill="none" stroke="#b74100" stroke-width="4.8" stroke-linecap="square" stroke-linejoin="bevel" d="M0 9.79847C7.13261 10.8174 15.6882 4.42328 21.2174 0" sodipodi:nodetypes="cc"/><path id="shape36" transform="translate(191.306164863476, 135.068210928992)" fill="none" stroke="#b74100" stroke-width="4.8" stroke-linecap="square" stroke-linejoin="bevel" d="M0 4.89923C0 7.93733 11.3987 0.427784 12.2971 0" sodipodi:nodetypes="cc"/><path id="shape37" transform="matrix(1.02370082544709 0.208762543403405 -0.214021804632717 0.998544930369356 81.2788774369459 75.3445109615329)" fill="#99dc5a" fill-rule="evenodd" stroke="#59932b" stroke-width="4.8" stroke-linecap="square" stroke-linejoin="bevel" d="M10.5346 63.9966C10.5346 69.7719 6.13351 53.4584 4.69431 47.904C2.1181 37.9615 -3.58992 17.8975 3.22429 8.29483C4.31699 6.75499 12.7279 51.0265 15.0241 51.0265C15.8474 51.0265 14.4654 49.3165 14.309 48.4281C12.1346 36.0796 9.87638 22.5617 12.1238 10.0198C12.2973 9.05199 15.3419 -1.02165 16.8517 0.0847604C22.6578 4.33939 19.1561 36.4028 19.1561 43.5151C19.1561 44.6244 19.5119 41.3313 19.6924 40.2398C20.5112 35.29 24.3642 23.4677 29.5455 22.0074C30.4812 21.7437 31.474 22.0213 31.6115 23.2302C34.3377 47.2027 7.05561 80.917 10.6538 63.7783" sodipodi:nodetypes="cccccccccccc"/><path id="shape38" transform="matrix(1.02370082544709 0.208762543403405 -0.214021804632717 0.998544930369356 29.3462607319568 130.44088818372)" fill="#e3c1e8" fill-rule="evenodd" stroke="#891688" stroke-width="4.8" stroke-linecap="square" stroke-linejoin="bevel" d="M58.2549 0C33.0842 0 46.6238 7.15055 34.1896 22.5451C24.0917 35.0469 6.29237 46.7878 1.20108 62.4857C-3.22688 76.1383 4.89453 91.7122 20.5192 83.9C22.8286 82.7454 23.9118 77.0554 26.0601 78.4876C35.0299 84.4674 41.3096 94.0087 54.7913 91.9865C68.7176 89.8976 68.307 78.7986 76.099 74.1234C80.5371 71.4607 85.964 78.8173 91.0957 78.1453C96.4878 77.4392 106.846 71.3638 106.478 64.8603C104.879 36.6198 58.2549 38.7334 58.2549 4.8" sodipodi:nodetypes="cccccccccc"/><path id="shape39" transform="matrix(1.02370082544709 0.208762543403405 -0.214021804632717 0.998544930369356 83.6567089457417 143.519765866159)" fill="none" stroke="#891688" stroke-width="4.8" stroke-linecap="square" stroke-linejoin="bevel" d="M23.6679 70.9176C40.5344 51.1136 -11.1479 26.2017 2.24133 0" sodipodi:nodetypes="cc"/><path id="shape40" transform="matrix(1.02370082544709 0.208762543403405 -0.214021804632717 0.998544930369356 48.4628705113942 137.292387270703)" fill="none" stroke="#891688" stroke-width="4.8" stroke-linecap="square" stroke-linejoin="bevel" d="M5.83098 73.8357C1.01872 69.9741 -4.23127 59.6389 5.38852 49.9665C10.817 43.4505 20.8889 37.2136 23.3093 26.322C24.5551 20.7161 25.7414 15.112 27.0104 9.52852C27.6773 6.59383 28.4009 -2.40186 28.4009 0.607668" sodipodi:nodetypes="ccccc"/>
</svg>
