<?xml version="1.0" encoding="UTF-8" standalone="no"?>
<!-- Created using Krita: https://krita.org -->

<svg
   width="240pt"
   height="240pt"
   viewBox="0 0 240 240"
   version="1.1"
   id="svg1"
   xmlns="http://www.w3.org/2000/svg"
   xmlns:svg="http://www.w3.org/2000/svg">
   <style type='text/css'>
      #lefteyegroup, #righteyegroup {
         transform-box: fill-box;
         transform-origin: center;
         animation: 2s linear 0s infinite eyespin;
         animation-play-state: paused;
      }
      #lefteyegroup:hover, #righteyegroup:hover { 
         animation-play-state: running;
      }
      @keyframes eyespin {
         from { transform: rotate(0deg) }
         to { transform: rotate(360deg) }
      }
      #stripe1 { animation: 8s linear 1s infinite stripe1pulse }
      #stripe2 { animation: 8s linear 1s infinite stripe2pulse }
      #stripe3 { animation: 8s linear 1s infinite stripe3pulse }
      #stripe4 { animation: 8s linear 1s infinite stripe4pulse }
      #stripe5 { animation: 8s linear 1s infinite stripe5pulse }
      #stripe6 { animation: 8s linear 1s infinite stripe6pulse }
      @keyframes stripe1pulse { 8% { fill: #03629c } 20% { fill: #8fc219 } 32% { fill: #03629c } }
      @keyframes stripe2pulse { 20% { fill: #03629c } 32% { fill: #8fc219 } 44% { fill: #03629c } }
      @keyframes stripe3pulse { 32% { fill: #03629c } 44% { fill: #8fc219 } 56% { fill: #03629c } }
      @keyframes stripe4pulse { 44% { fill: #03629c } 56% { fill: #8fc219 } 68% { fill: #03629c } }
      @keyframes stripe5pulse { 56% { fill: #03629c } 68% { fill: #8fc219 } 80% { fill: #03629c } }
      @keyframes stripe6pulse { 68% { fill: #03629c } 80% { fill: #8fc219 } 92% { fill: #03629c } }
   </style>
  <defs
     id="defs1" />
  <g
     id="logo"
     style="display:inline">
    <ellipse
       id="shape0"
       transform="rotate(0.30865205,-8651.4062,8276.9502)"
       rx="74.58976"
       ry="73.465889"
       cx="74.58976"
       cy="73.465889"
       fill="#595959"
       fill-rule="evenodd"
       stroke="#1a1a1a"
       stroke-width="3.36"
       stroke-linecap="square"
       stroke-linejoin="bevel" />
    <path
       id="stripe6"
       transform="translate(148.6496,160.5667)"
       fill="#00629b"
       fill-rule="evenodd"
       stroke="#00629b"
       stroke-width="0.48"
       stroke-linecap="square"
       stroke-linejoin="bevel"
       d="M 5.82616,9.92642 C 7.61688,10.7509 4.57517,6.00266 2.77281,5.20163 -5.66354,1.45221 7.44437,0 11.697,0 18.277,0 23.0224,9.90731 21.0276,15.6699 16.3785,28.1203 0.363881,24.4851 5.82616,9.92642" />
    <path
       id="stripe5"
       transform="translate(143.34348,179.65017)"
       fill="#00629b"
       fill-rule="evenodd"
       stroke="#00629b"
       stroke-width="0.48"
       stroke-linecap="square"
       stroke-linejoin="bevel"
       d="M 20.0422,3.82723 C 18.7349,7.76598 32.1694,18.8509 15.1338,15.9137 9.59119,14.9581 0,6.33948 0,6.33948 0,6.33948 8.47999,0.730715 9.37935,0 12.1721,0.0191783 14.0395,4.78064 20.0422,3.82723 Z" />
    <path
       id="stripe4"
       transform="translate(169.2213,156.17317)"
       fill="#00629b"
       fill-rule="evenodd"
       stroke="#666666"
       stroke-width="0.48"
       stroke-linecap="square"
       stroke-linejoin="bevel"
       d="M 0.829761,5.9215 C -2.625,9.85813 5.15018,18.0101 15.9635,23.3307 17.6457,22.4896 18.3729,17.7263 19.2471,16.211 25.3548,1.70334 23.8712,-3.6902 13.0213,3.40196 7.2272,5.01141 4.89648,1.42244 2.27529,0.259932 -0.345895,-0.902579 4.28453,1.98487 0.829761,5.9215 Z" />
    <path
       id="shape22"
       transform="translate(22.35456,129.70052)"
       fill="#8fc319"
       stroke="#0f1c3e"
       stroke-width="0.48"
       stroke-linecap="square"
       stroke-linejoin="bevel"
       d="m 30.7896,29.0327 c 5.8526,3.4349 12.4987,3.5928 24.1274,0.6626 11.6287,-2.9303 -0.9567,1.0742 11.6045,-1.481 12.5612,-2.5553 6.6935,-1.7257 13.7556,-2.3115 7.062,-0.5858 1.6266,0.9614 16.2327,-1.4157 14.6062,-2.3772 12.1622,-2.328 26.0412,-3.4231 13.879,-1.0951 9.959,0.4996 14.484,0.1288 4.525,-0.3708 7.987,-0.5455 17.41,-1.1042 22.8,-2.0759 32.51,2.6255 34.894,3.0182 C 209.211,-1.2078 168.646,9.9536 165.322,10.8317 161.997,11.7097 184.776,6.66693 184.351,4.57446 183.926,2.48199 183.908,1.18997 182.493,0.0103847 182.1,-0.317023 152.705,7.20616 149.513,7.20616 c -2.128,0 -11.152,0.64412 -27.072,1.93237 L 105.38,9.67223 72.4007,12.7824 61.8001,14.586 c -3.5792,0.8925 -6.941,1.5428 -10.0853,1.9507 -4.7164,0.6119 -7.9875,2.7482 -25.1029,-3.4046 C 25.7303,12.4621 14.2072,6.8446 9.33075,1.31703 8.48458,6.55804 5.69446,10.275 0,11.715 l 30.7896,17.3177" />
    <path
       id="shape11"
       transform="translate(56.979064,47.937658)"
       fill="#00a2e0"
       fill-rule="evenodd"
       stroke="#0f1c3e"
       stroke-width="0.48"
       stroke-linecap="square"
       stroke-linejoin="bevel"
       d="M 27.9884,0.116107 C 20.0813,1.35454 17.4334,13.1794 12.6852,17.8276 9.60244,20.8454 -1.014,20.8377 0.0785316,25.8147 3.34966,27.861 18.0878,24.5347 21.0773,36.2863 c 0.92,9.8789 -15.45884,18.6085 8.7971,20.1703 20.7389,-2.5978 1.7955,-14.4001 7.0302,-22.0842 6.5228,-11.4628 22.8921,-3.351 19.14,-7.6007 C 54.285,20.1735 44.4793,20.803 40.0701,12.3618 39.0088,10.7873 34.9617,-0.197154 31.0641,0.263286 27.1539,0.700708 29.2389,-0.334069 27.9884,0.116107 Z" />
    <path
       id="shape31"
       transform="translate(49.399656,74.218865)"
       fill="#00629b"
       fill-rule="evenodd"
       stroke="#0f1c3e"
       stroke-width="0.48"
       stroke-linecap="square"
       stroke-linejoin="bevel"
       d="m 0.505458,30.5001 c 0,-4.9874 -1.665098,10.741 1.049012,14.9252 2.45448,3.7839 26.26673,12.1804 31.82023,12.9377 7.1722,0.978 26.4596,-5.9043 32.446,-10.1219 3.9347,-2.7722 3.3757,-9.3038 3.6072,-13.269 L 68.9634,32.987 C 57.3155,35.0197 42.0887,20.8952 58.8803,6.16981 59.0688,6.05442 71.8437,4.57771 64.5354,1.76239 55.7413,-0.800647 40.9451,5.32217 43.445,10.2585 42.2672,12.8196 56.1543,31.0965 35.404,30.2012 34.2098,30.5238 21.6862,29.1353 24.4308,21.5776 34.9559,9.67388 25.8132,-2.74305 6.81902,0.533047 0.220517,5.19075 20.4009,1.63968 19.5862,16.7513 18.6921,24.2619 16.258,29.9968 7.93001,31.5216 5.78328,31.9146 0.200574,30.1452 0.505458,30.5001 Z" />
    <ellipse
       id="shape4"
       transform="translate(50.16,93.84)"
       rx="2.04"
       ry="1.92"
       cx="2.04"
       cy="1.92"
       fill="none"
       stroke="#0f1c3e"
       stroke-width="0.48"
       stroke-linecap="square"
       stroke-linejoin="bevel" />
    <ellipse
       id="shape5"
       transform="matrix(-1,0,0,1,119.19559,85.763298)"
       rx="2.0704324"
       ry="2.0427909"
       cx="2.0704324"
       cy="2.0427909"
       fill="none"
       stroke="#0f1c3e"
       stroke-width="0.48"
       stroke-linecap="square"
       stroke-linejoin="bevel" />
    <path
       id="shape6"
       transform="translate(75.941416,48.147966)"
       fill="#8fc319"
       fill-rule="evenodd"
       stroke="#0f1c3e"
       stroke-width="0.48"
       stroke-linecap="square"
       stroke-linejoin="bevel"
       d="m 0,7.66993 c 2.27753,0 5.09672,6.00577 5.72284,7.33477 C 13.5941,41.3151 6.51508,21.9535 17.1516,9.67043 17.2689,9.54689 18.9433,8.04138 18.9212,8.04138 15.4412,-5.02757 3.28118,0.0510154 0,7.66993 Z" />
    <ellipse
       id="shape7"
       transform="rotate(39.512153,-163.42214,102.74397)"
       rx="3.4675217"
       ry="7.4528809"
       cx="3.4675217"
       cy="7.4528809"
       fill="#a5e80d"
       stroke="#0f1c3e"
       stroke-width="0.48"
       stroke-linecap="square"
       stroke-linejoin="bevel" />
    <path
       id="shape9"
       transform="translate(97.33182,74.995643)"
       fill="#00a2e0"
       fill-rule="evenodd"
       stroke="#0f1c3e"
       stroke-width="0.48"
       stroke-linecap="square"
       stroke-linejoin="bevel"
       d="M 94.6142,56.4636 C 93.0334,49.2417 87.1808,38.4888 82.6969,32.5188 M 81.4922,30.6987 C 65.2498,9.07175 42.0235,0.40116 18.0443,0 c -4.3188,0.5744 1.7584,4.88704 9.8129,9.53256 0.1648,5.38454 2.4803,10.88774 1.1911,15.02954 -8.5251,9.0375 -8.6607,10.659 -6.47,13.458 C 20.0873,53.1095 9.70747,49.7185 8.1979,52.5486 l 2.213,1.2833 c 11.8521,4.0926 5.005,11.9749 0.9075,11.4286 C 8.57009,64.8941 0,63.8826 0,68.5731 c 0,4.9311 11.2204,1.5048 10.711,3.9384 -0.3981,1.9019 -6.3629,11.99 -4.969,12.9192 1.13525,0.7569 4.5887,-2.4788 5.2635,-3.2574 9.8275,-11.3392 -1.55809,9.0641 4.0304,5.8707 8.9503,-4.0168 2.6205,-15.8707 4.3802,-13.0112 6.3798,5.3164 9.7862,-8.1088 8.6866,-12.2016 -0.4842,-1.8023 -3.3046,-6.3404 -1.3619,-5.291 4.3786,0.1095 13.7445,-1.4846 17.8333,0.23 11.419,4.7886 0.0942,15.3995 5.2451,19.6918 5.9338,4.9447 5.0243,-13.5539 5.0243,-1.0858 0,1.3254 2.7274,1.4948 4.3801,1.2883 3.4059,-0.4258 -2.2073,-11.8331 1.049,-10.7477 3.5839,1.1946 7.7397,7.6254 11.2079,1.1226 2.7317,-5.1217 2.762,-10.0636 0.957,-17.4925 4.9477,-1.971 7.3093,-12.1558 8.9995,-15.8179 z" />
    <path
       id="shape111"
       transform="translate(153.12065,164.84323)"
       fill="none"
       stroke="#0f1c3e"
       stroke-width="0.48"
       stroke-linecap="square"
       stroke-linejoin="bevel"
       d="M 7.0787,8.8705 C 9.88544,5.66594 -3.27596,4.3517 0.784585,15.2933 5.15316,19.8142 9.67228,18.8044 13.0048,16.3791 17.4455,13.1427 18.7213,5.98156 15.3605,0" />
    <path
       id="shape12"
       transform="translate(135.91779,132.53903)"
       fill="none"
       stroke="#0f1c3e"
       stroke-width="0.48"
       stroke-linecap="square"
       stroke-linejoin="bevel"
       d="M 4.29498,0.613331 C 4.29498,-1.604 -0.383344,2.74041 0.0252917,4.91975" />
    <path
       id="shape19"
       transform="translate(75.394438,132.19392)"
       fill="#00629b"
       stroke="#0f1c3e"
       stroke-width="0.48"
       stroke-linecap="square"
       stroke-linejoin="bevel"
       d="M 17.2812,2.02585 C 16.3579,8.61122 14.7676,8.14551 11.2079,9.33205 5.18521,10.1131 6.65829,25.223 0,16.2333 0,10.8085 1.73003,5.61446 5.41073,1.93383 4.69578,1.29578 18.2216,-2.1326 17.2812,2.02585 Z" />
    <path
       id="shape20"
       transform="translate(80.271456,152.35854)"
       fill="#00629b"
       stroke="#0f1c3e"
       stroke-width="0.48"
       stroke-linecap="square"
       stroke-linejoin="bevel"
       d="M 0.0184038,6.31951 C 2.09804,3.19958 4.89332,-0.78931 6.66219,0.135932 9.10154,1.41187 7.77488,4.41211 6.699,9.24567 5.15203,10.2184 3.16206,10.4017 0,6.70599" />
    <path
       id="shape23"
       transform="translate(113.39509,66.501672)"
       fill="#8fc319"
       fill-rule="evenodd"
       stroke="#0f1c3e"
       stroke-width="0.48"
       stroke-linecap="square"
       stroke-linejoin="bevel"
       d="M 0.776244,6.67362 C 6.98266,-3.08943 13.0876,-1.99831 17.5394,9.01422 11.0982,9.13656 -3.51599,9.29297 0.776244,6.67362 Z" />
    <path
       id="shape24"
       transform="translate(132.90397,71.027065)"
       fill="#a5e80d"
       fill-rule="evenodd"
       stroke="#0f1c3e"
       stroke-width="0.48"
       stroke-linecap="square"
       stroke-linejoin="bevel"
       d="M 0,5.06584 C 6.58749,-3.35342 14.4985,-1.19469 14.8335,10.9182 11.5305,8.32577 0.0351703,7.06955 0,5.06584 Z" />
    <path
       id="shape25"
       transform="translate(147.58207,77.595547)"
       fill="#8fc319"
       fill-rule="evenodd"
       stroke="#0f1c3e"
       stroke-width="0.48"
       stroke-linecap="square"
       stroke-linejoin="bevel"
       d="M 1.02038,3.31907 C 9.34699,-3.03582 15.2343,-0.0474663 14.0196,10.4201 11.6395,11.1051 -4.10768,4.74633 1.02038,3.31907 Z" />
    <path
       id="shape26"
       transform="translate(163.38265,87.664947)"
       fill="#a5e80d"
       fill-rule="evenodd"
       stroke="#0f1c3e"
       stroke-width="0.48"
       stroke-linecap="square"
       stroke-linejoin="bevel"
       d="M 0.164795,2.30421 C 12.4725,-4.29817 14.6401,4.69114 11.4648,11.6532 9.15913,11.1013 -1.44085,5.19395 0.164795,2.30421 Z" />
    <path
       id="shape27"
       transform="translate(175.71239,101.02761)"
       fill="#8fc319"
       fill-rule="evenodd"
       stroke="#0f1c3e"
       stroke-width="0.48"
       stroke-linecap="square"
       stroke-linejoin="bevel"
       d="M 0,0.791297 C 8.91475,-2.36959 16.9704,4.35717 8.52098,13.5449 6.82468,10.8236 1.63749,3.71095 0,0.791297 Z" />
    <path
       id="shape28"
       transform="translate(186.08738,116.58208)"
       fill="#a5e80d"
       fill-rule="evenodd"
       stroke="#0f1c3e"
       stroke-width="0.48"
       stroke-linecap="square"
       stroke-linejoin="bevel"
       d="M 0.0599867,0 C 12.1237,0.54807 12.0819,9.24405 5.65476,13.6922 4.57617,10.82 -0.613013,2.00196 0.0599867,0 Z" />
    <path
       id="shape29"
       transform="translate(193.38062,153.53635)"
       fill="#a5e80d"
       fill-rule="evenodd"
       stroke="#0f1c3e"
       stroke-width="0.48"
       stroke-linecap="square"
       stroke-linejoin="bevel"
       d="M 1.12349,0 C 7.63213,1.40755 7.79438,11.0851 0.203301,11.8519 -0.392208,7.42971 0.444175,4.85881 1.12349,0 Z" />
    <path
       id="shape30"
       transform="translate(187.91948,169.29155)"
       fill="#8fc319"
       fill-rule="evenodd"
       stroke="#0f1c3e"
       stroke-width="0.48"
       stroke-linecap="square"
       stroke-linejoin="bevel"
       d="M 4.46819,0 C 8.77828,5.3957 5.77549,11.4025 0.308925,11.2446 -0.954278,6.96185 1.89968,3.73106 4.46819,0 Z" />
    <path
       id="shape311"
       transform="translate(177.88544,183.01917)"
       fill="#a5e80d"
       fill-rule="evenodd"
       stroke="#0f1c3e"
       stroke-width="0.48"
       stroke-linecap="square"
       stroke-linejoin="bevel"
       d="M 8.09769,0 C 11.1034,3.01398 5.60491,10.6065 0,8.66806 0.811435,4.34643 5.24909,1.75237 8.09769,0 Z" />
    <path
       id="shape32"
       transform="translate(170.83371,149.69537)"
       fill="#00a2e0"
       stroke="#0f1c3e"
       stroke-width="0.48"
       stroke-linecap="square"
       stroke-linejoin="bevel"
       d="M 21.9772,9.18511 C 22.284,0.744063 7.38723,18.6756 1.19932,6.46139 0.717478,7.75182 0,2.49056 0,1.40178 3.94806,-0.331894 19.0627,-0.0584177 20.061,0.164363 c 6.0371,0 0.8208,5.897647 1.9162,9.020747 z" />
    <path
       id="shape33"
       transform="translate(152.3041,177.09997)"
       fill="none"
       stroke="#0f1c3e"
       stroke-width="0.48"
       stroke-linecap="square"
       stroke-linejoin="bevel"
       d="M 0,0" />
    <path
       id="shape36"
       transform="translate(163.12422,170.35742)"
       fill="#00a2e0"
       stroke="#0f1c3e"
       stroke-width="0.48"
       stroke-linecap="square"
       stroke-linejoin="bevel"
       d="m 6.44269,22.8388 c -4.65838,0 -6.499799,-6.5784 -6.44134444,-9.8275 C 2.22019,12.1077 9.39716,8.66415 8.24627,0 15.0757,0 15.0669,9.62504 21.6443,9.62504 23.7338,12.3358 10.3537,23.2902 6.44269,22.8388 Z" />
    <path
       id="shape38"
       transform="translate(141.61,165.378)"
       fill="#00a2e0"
       stroke="#0f1c3e"
       stroke-width="0.48"
       stroke-linecap="square"
       stroke-linejoin="bevel"
       d="M 6.84769,0.0173302 C 9.15662,0.661453 13.5141,2.78227 13.9139,5.58096 10.5102,9.7046 11.519,12.705 12.8262,15.1189 9.76826,16.9177 6.85989,15.4846 3.57181,19.9851 -2.43879,24.422 -0.540518,-0.75278 6.84769,0.0173302 Z" />
    <path
       id="stripe1"
       transform="translate(121.21568,78.772619)"
       fill="#00629b"
       fill-rule="evenodd"
       stroke="#0f1c3e"
       stroke-width="0.48"
       stroke-linecap="square"
       stroke-linejoin="bevel"
       d="M 14.5066,0.236587 C 12.5201,3.92396 8.9915,5.73208 11.654,10.1929 24.0577,-2.81861 18.9833,15.4544 10.6786,33.4734 5.17373,40.3919 -9.52066,52.3868 9.26146,44.4603 11.205,43.8275 13.5779,43.3583 17.1751,46.043 25.244,47.1708 15.1627,33.9751 20.1933,26.572 21.3237,22.5782 24.3386,17.2213 26.9844,13.8184 29.4157,7.68164 27.5242,6.43997 24.5471,2.1695 21.6704,-0.890641 16.2734,0.156841 14.5066,0.236587 Z" />
    <path
       id="stripe2"
       transform="translate(145.98937,91.82263)"
       fill="#00629b"
       fill-rule="evenodd"
       stroke="#0f1c3e"
       stroke-width="0.48"
       stroke-linecap="square"
       stroke-linejoin="bevel"
       d="M 19.3631,1.52292 C 19.9198,0.966152 11.6543,-0.309468 10.8973,0.0690404 3.6467,3.69427 9.74197,6.82306 13.5106,9.04996 22.6339,14.4409 9.62771,14.1249 3.2965,16.669 2.06041,25.7397 13.904,29.1872 6.18591,31.7599 4.18678,32.4263 -4.24477,35.578 2.68918,38.9005 21.772,48.0442 12.2687,31.0363 14.3388,23.7912 16.2341,17.1577 31.3944,25.0004 23.6696,8.53466 22.2731,5.1217 20.3039,2.21688 20.9826,2.44309 21.6613,2.66931 18.8063,2.07969 19.3631,1.52292 Z" />
    <path
       id="shape8"
       transform="translate(50.297094,114.10491)"
       fill="#00a2e0"
       fill-rule="evenodd"
       stroke="#0f1c3e"
       stroke-width="0.48"
       stroke-linecap="square"
       stroke-linejoin="bevel"
       d="M 2.09254,2.70512 C 3.1547,1.25483 -1.25702,4.41084 0.360558,5.48921 9.24926,11.4149 22.154,16.8517 32.5316,18.9271 47.5832,19.3399 76.0886,4.32183 65.3465,3.01798 50.919,-6.04579 45.6351,9.14296 34.8697,8.90711 24.5144,8.99648 16.4741,-5.96801 2.09254,2.70512 Z" />
    <path
       id="shape10"
       transform="translate(135.96986,131.80906)"
       fill="#00629b"
       fill-rule="evenodd"
       stroke="#0f1c3e"
       stroke-width="0.48"
       stroke-linecap="square"
       stroke-linejoin="bevel"
       d="M 4.47442,0 1.46164,1.65551 0.223721,5.23498 0,6.33865 9.9332,6.41322 10.3806,5.47361 7.97938,2.04328 Z" />
    <path
       id="stripe3"
       transform="translate(170.05,108.13413)"
       fill="#00629b"
       fill-rule="evenodd"
       stroke="#0f1c3e"
       stroke-width="0.48"
       stroke-linecap="square"
       stroke-linejoin="bevel"
       d="M 1.34426,24.388 C -1.99419,16.3388 4.1633,17.3805 6.58998,9.08604 9.01644,-11.4788 13.4406,8.71916 16.6167,12.8211 c 0.8643,2.1023 -0.3413,5.6316 -1.4404,2.9285 -4.014,0.4986 -4.7617,9.0162 -13.83204,8.6384 z" />
    <path
       id="shape14"
       transform="translate(170.49744,122.74107)"
       fill="#00a2e0"
       fill-rule="evenodd"
       stroke="#0f1c3e"
       stroke-width="0.48"
       stroke-linecap="square"
       stroke-linejoin="bevel"
       d="M 17.5994,0.0820295 C 15.4966,0.0820295 0,9.31934 0,10.992 0,17.1975 17.6575,11.1585 21.5816,8.9785 22.1741,8.64933 17.5994,-0.242061 17.5994,0.0820295 Z" />
    <path
       id="shape02"
       transform="translate(57.040889,47.946517)"
       fill="none"
       stroke="#0f1c3e"
       stroke-width="3.36"
       stroke-linecap="square"
       stroke-linejoin="bevel"
       d="M 28.1996,0.199984 C 20.2925,1.43842 17.4334,12.98 12.6852,17.6282 9.60244,20.6459 -1.014,20.6383 0.0785316,25.6153 3.34966,27.6615 18.0878,24.3352 21.0773,36.0869 c 0.92,9.8789 -15.45884,18.6084 8.7971,20.1702 20.7389,-2.5978 1.7955,-14.4 7.0302,-22.0842 6.5228,-11.4627 22.8921,-3.351 19.14,-7.6006 C 54.285,19.974 44.4793,20.6035 40.0701,12.1623 39.0716,10.703 34.423,1.58617 31.5445,0.525446 29.3425,-0.0843583 29.8539,-0.121597 28.1996,0.199984 Z" />
    <path
       id="shape210"
       transform="translate(49.399656,103.75229)"
       fill="none"
       stroke="#0f1c3e"
       stroke-width="3.36"
       stroke-linecap="square"
       stroke-linejoin="bevel"
       d="m 0.505458,0.966632 c 0,-4.987362 -1.665098,10.741068 1.049012,14.925268 2.45448,3.7839 26.26673,12.1804 31.82023,12.9377 7.1722,0.978 26.4596,-5.9044 32.446,-10.122 3.9347,-2.7721 3.5328,-9.5132 3.6072,-13.26891" />
    <g
       id="lefteyegroup">
      <ellipse
         id="lefteye"
         transform="translate(43.492888,77.59582)"
         rx="12.84"
         ry="13.92"
         cx="12.84"
         cy="13.92"
         fill="#a5e80d"
         stroke="#0f1c3e"
         stroke-width="0.48"
         stroke-linecap="square"
         stroke-linejoin="bevel" />
      <ellipse
         id="leftpupil"
         transform="translate(50.16,93.84)"
         rx="2.04"
         ry="1.92"
         cx="2.04"
         cy="1.92"
         fill="#000000"
         stroke="#0f1c3e"
         stroke-width="3.36"
         stroke-linecap="square"
         stroke-linejoin="bevel" />
    </g>
    <g
       id="righteyegroup">
      <ellipse
         id="righteye"
         transform="translate(101.28,79.44)"
         rx="12.84"
         ry="13.92"
         cx="12.84"
         cy="13.92"
         fill="#a5e80d"
         fill-rule="evenodd"
         stroke="#0f1c3e"
         stroke-width="0.48"
         stroke-linecap="square"
         stroke-linejoin="bevel" />
      <ellipse
         id="rightpupil"
         transform="matrix(-1,0,0,1,119.19559,85.763298)"
         rx="2.0704324"
         ry="2.0427909"
         cx="2.0704324"
         cy="2.0427909"
         fill="#000000"
         stroke="#0f1c3e"
         stroke-width="3.36"
         stroke-linecap="square"
         stroke-linejoin="bevel" />
    </g>
    <path
       id="shape51"
       transform="translate(77.105995,56.18884)"
       fill="none"
       stroke="#0f1c3e"
       stroke-width="3.36"
       stroke-linecap="square"
       stroke-linejoin="bevel"
       d="M 0,0 C 2.27753,0 3.90123,5.44425 4.52735,6.77318 12.3986,33.0836 5.31958,13.722 15.9561,1.43894 16.0735,1.3154 16.8616,0.479646 16.8395,0.479646" />
    <path
       id="shape61"
       transform="translate(115.53322,74.923624)"
       fill="none"
       stroke="#0f1c3e"
       stroke-width="3.36"
       stroke-linecap="square"
       stroke-linejoin="bevel"
       d="m 0,0 c 23.7815,0 47.0473,9.14347 63.2908,30.7707 4.4839,5.97 11.5412,18.543 13.122,25.7649" />
    <ellipse
       id="shape71"
       transform="rotate(39.512153,-163.42214,102.74397)"
       rx="3.4675217"
       ry="7.4528809"
       cx="3.4675217"
       cy="7.4528809"
       fill="none"
       stroke="#0f1c3e"
       stroke-width="3.36"
       stroke-linecap="square"
       stroke-linejoin="bevel" />
    <path
       id="shape81"
       transform="translate(31.685309,131.01756)"
       fill="none"
       stroke="#0f1c3e"
       stroke-width="3.36"
       stroke-linecap="square"
       stroke-linejoin="bevel"
       d="m 0,0 c 4.87645,5.52757 16.3996,11.1451 17.2812,11.8151 17.1154,6.1528 20.3865,4.0165 25.1029,3.4046" />
    <path
       id="shape91"
       transform="translate(97.33182,128.63214)"
       fill="none"
       stroke="#0f1c3e"
       stroke-width="3.36"
       stroke-linecap="square"
       stroke-linejoin="bevel"
       d="M 8.72337,0 C 20.5755,4.09258 15.4159,12.1703 11.3184,11.624 8.57009,11.2576 0,10.2461 0,14.9366 c 0,4.9311 11.2204,1.5048 10.711,3.9384 -0.3981,1.9019 -6.3629,11.99 -4.969,12.9192 1.13525,0.7569 4.5887,-2.4787 5.2635,-3.2574 9.8275,-11.3392 -1.55809,9.0641 4.0304,5.8707 8.9503,-4.0168 2.6205,-15.8707 4.3802,-13.0112 6.3798,5.3164 9.7862,-8.1088 8.6866,-12.20158 C 27.6185,7.39241 24.3012,2.84508 26.2439,3.89451" />
    <path
       id="shape101"
       transform="translate(124.56951,125.62533)"
       fill="none"
       stroke="#0f1c3e"
       stroke-width="3.36"
       stroke-linecap="square"
       stroke-linejoin="bevel"
       d="m 0,6.91972 c 4.37865,0.10947 13.2476,-1.49378 17.3364,0.22085 11.419,4.78853 0.0942,15.39943 5.2451,19.69173 5.9338,4.9447 5.0243,-13.5539 5.0243,-1.0858 0,1.3254 2.7275,1.4948 4.3801,1.2883 3.4059,-0.4258 -2.2073,-11.8331 1.049,-10.7477 3.5839,1.1946 7.7397,7.6254 11.2079,1.1226 C 46.9745,12.288 46.4343,7.42889 44.6293,0" />
    <path
       id="shape112"
       transform="translate(141.5173,149.86491)"
       fill="none"
       stroke="#0f1c3e"
       stroke-width="3.36"
       stroke-linecap="square"
       stroke-linejoin="bevel"
       d="M 29.5566,2.98137 C 29.2899,9.85528 27.8264,13.9577 26.98,16.4712 28.4297,12.246 3.77214,1.87175 0,26.8875 0.536544,35.498 2.91233,37.3568 6.51496,40.727 29.6678,56.9766 53.5158,28.7343 52.0277,0" />
    <path
       id="shape121"
       transform="translate(153.3774,164.84323)"
       fill="none"
       stroke="#0f1c3e"
       stroke-width="3.36"
       stroke-linecap="square"
       stroke-linejoin="bevel"
       d="M 6.5063,8.90056 C 10.2052,3.32537 -3.04941,2.77781 0.663109,15.3685 5.03169,19.8894 9.41553,18.8044 12.748,16.3791 17.1887,13.1427 18.4645,5.98156 15.1037,0" />
    <path
       id="shape131"
       transform="translate(135.91779,132.53903)"
       fill="none"
       stroke="#0f1c3e"
       stroke-width="3.36"
       stroke-linecap="square"
       stroke-linejoin="bevel"
       d="M 4.29498,0.613331 C 4.29498,-1.604 -0.383344,2.74041 0.0252917,4.91975" />
    <path
       id="shape141"
       transform="translate(84.154667,142.5581)"
       fill="none"
       stroke="#0f1c3e"
       stroke-width="3.36"
       stroke-linecap="square"
       stroke-linejoin="miter"
       stroke-miterlimit="2"
       d="M 0,1.7284 11.307,0" />
    <path
       id="shape151"
       transform="translate(127.73497,138.83905)"
       fill="none"
       stroke="#0f1c3e"
       stroke-width="3.36"
       stroke-linecap="square"
       stroke-linejoin="miter"
       stroke-miterlimit="2"
       d="M 0,0.533702 17.0604,0" />
    <path
       id="shape16"
       transform="translate(22.35456,141.41555)"
       fill="none"
       stroke="#0f1c3e"
       stroke-width="3.36"
       stroke-linecap="square"
       stroke-linejoin="miter"
       stroke-miterlimit="2"
       d="M 0,0 30.7896,17.3177" />
    <path
       id="shape17"
       transform="translate(171.86739,129.70052)"
       fill="none"
       stroke="#0f1c3e"
       stroke-width="3.36"
       stroke-linecap="square"
       stroke-linejoin="bevel"
       d="m 0,7.20616 c 3.19206,0 32.5868,-7.523183 32.9797,-7.1957753 C 34.3952,1.18997 34.4134,2.48199 34.8385,4.57446" />
    <path
       id="shape18"
       transform="translate(159.38958,137.21782)"
       fill="none"
       stroke="#0f1c3e"
       stroke-width="3.36"
       stroke-linecap="square"
       stroke-linejoin="bevel"
       d="M 28.2867,3.31436 C 31.6113,2.4363 72.1759,-8.7251 52.3037,15.5895 49.9195,15.1968 40.2097,10.4954 17.41,12.5713 7.98665,13.13 4.52493,13.3047 0,13.6755" />
    <path
       id="shape191"
       transform="translate(53.144191,158.73326)"
       fill="none"
       stroke="#0f1c3e"
       stroke-width="3.36"
       stroke-linecap="square"
       stroke-linejoin="bevel"
       d="M 0,0 C 5.85255,3.43488 13.2502,3.54769 24.8789,0.617436" />
    <path
       id="shape201"
       transform="translate(75.394438,134.12775)"
       fill="none"
       stroke="#0f1c3e"
       stroke-width="3.36"
       stroke-linecap="square"
       stroke-linejoin="bevel"
       d="M 5.41073,0 C 1.73003,3.68063 0,8.87469 0,14.2995 6.65829,23.2892 5.18521,8.17927 11.2079,7.39822 c 3.5597,-1.18654 5.15,-0.72083 6.0733,-7.3062024" />
    <path
       id="shape211"
       transform="translate(80.271456,152.35854)"
       fill="none"
       stroke="#0f1c3e"
       stroke-width="3.36"
       stroke-linecap="square"
       stroke-linejoin="bevel"
       d="M 0.0184038,6.31951 C 2.09804,3.19958 4.89332,-0.78931 6.66219,0.135932 9.10154,1.41187 7.77488,4.41211 6.699,9.24567 5.15203,10.2184 3.16206,10.4017 0,6.70599" />
    <path
       id="shape221"
       transform="rotate(12.211511,-669.52329,496.96385)"
       fill="none"
       stroke="#0f1c3e"
       stroke-width="3.36"
       stroke-linecap="square"
       stroke-linejoin="miter"
       stroke-miterlimit="2"
       d="M 0,5.16879 C 11.7365,0.0143803 6.17706,2.06631 12.9554,0" />
    <path
       id="shape231"
       transform="translate(118.86432,150.76454)"
       fill="none"
       stroke="#0f1c3e"
       stroke-width="3.36"
       stroke-linecap="square"
       stroke-linejoin="bevel"
       d="M 0,3.42305 C 14.6061,1.04589 12.1626,1.09508 26.0414,0" />
    <path
       id="shape241"
       transform="translate(114.17134,66.328105)"
       fill="none"
       stroke="#0f1c3e"
       stroke-width="3.36"
       stroke-linecap="square"
       stroke-linejoin="bevel"
       d="M 0,6.84719 C 6.20642,-2.91586 11.946,-2.21456 16.3978,8.79796" />
    <path
       id="shape251"
       transform="translate(132.94326,69.508121)"
       fill="none"
       stroke="#0f1c3e"
       stroke-width="3.36"
       stroke-linecap="square"
       stroke-linejoin="bevel"
       d="M 0,5.06584 C 6.58748,-3.35342 14.4985,-1.19469 14.8335,10.9182" />
    <path
       id="shape261"
       transform="translate(148.64174,76.008155)"
       fill="none"
       stroke="#0f1c3e"
       stroke-width="3.36"
       stroke-linecap="square"
       stroke-linejoin="bevel"
       d="M 0,3.38752 C 8.32661,-2.96737 14.5022,-0.215515 13.2876,10.252" />
    <path
       id="shape271"
       transform="translate(163.86171,86.146002)"
       fill="none"
       stroke="#0f1c3e"
       stroke-width="3.36"
       stroke-linecap="square"
       stroke-linejoin="bevel"
       d="M 0,2.30421 C 12.3078,-4.29817 14.4753,4.69114 11.3,11.6532" />
    <path
       id="shape281"
       transform="translate(176.02666,99.639608)"
       fill="none"
       stroke="#0f1c3e"
       stroke-width="3.36"
       stroke-linecap="square"
       stroke-linejoin="bevel"
       d="M 0,0.791297 C 8.91475,-2.36959 16.9704,4.35717 8.52098,13.5449" />
    <path
       id="shape291"
       transform="translate(186.46163,115.42977)"
       fill="none"
       stroke="#0f1c3e"
       stroke-width="3.36"
       stroke-linecap="square"
       stroke-linejoin="bevel"
       d="M 0,0 C 12.0637,0.54807 12.0219,9.24405 5.59477,13.6922" />
    <path
       id="shape301"
       transform="translate(193.58392,152.38405)"
       fill="none"
       stroke="#0f1c3e"
       stroke-width="3.36"
       stroke-linecap="square"
       stroke-linejoin="bevel"
       d="M 0.920192,0 C 7.42715,1.38621 7.58053,10.9506 0,11.8519" />
    <path
       id="shape312"
       transform="translate(188.2284,168.59755)"
       fill="none"
       stroke="#0f1c3e"
       stroke-width="3.36"
       stroke-linecap="square"
       stroke-linejoin="bevel"
       d="M 4.15927,0 C 8.46936,5.3957 5.46656,11.4025 0,11.2446" />
    <path
       id="shape321"
       transform="translate(177.88544,182.63943)"
       fill="none"
       stroke="#0f1c3e"
       stroke-width="3.36"
       stroke-linecap="square"
       stroke-linejoin="bevel"
       d="M 8.09769,0 C 11.1034,3.01398 5.60491,10.6065 0,8.66806" />
    <path
       id="shape341"
       transform="translate(172.03302,156.15677)"
       fill="none"
       stroke="#0f1c3e"
       stroke-width="3.36"
       stroke-linecap="square"
       stroke-linejoin="bevel"
       d="M 0,0 C 6.27294,12.2142 21.3744,-5.71733 21.0634,2.72372" />
    <path
       id="shape35"
       transform="translate(152.3041,177.09997)"
       fill="none"
       stroke="#0f1c3e"
       stroke-width="3.36"
       stroke-linecap="square"
       stroke-linejoin="bevel"
       d="M 0,0" />
    <path
       id="shape361"
       transform="translate(171.72199,122.68378)"
       fill="none"
       stroke="#0f1c3e"
       stroke-width="3.36"
       stroke-linecap="square"
       stroke-linejoin="bevel"
       d="M 0,8.62267 C 9.07037,8.8517 10.3512,0.461452 14.3652,0" />
    <path
       id="shape37"
       transform="translate(170.33987,109.72468)"
       fill="none"
       stroke="#0f1c3e"
       stroke-width="3.36"
       stroke-linecap="square"
       stroke-linejoin="bevel"
       d="M 0,15.735 C 4.94772,13.7641 6.73877,3.66202 8.42896,0" />
    <path
       id="shape381"
       transform="translate(171.37048,170.40109)"
       fill="none"
       stroke="#0f1c3e"
       stroke-width="3.36"
       stroke-linecap="square"
       stroke-linejoin="bevel"
       d="M 0,0 C 6.82939,0 6.82063,9.62504 13.398,9.62504" />
    <path
       id="shape391"
       transform="translate(163.12422,183.41238)"
       fill="none"
       stroke="#0f1c3e"
       stroke-width="3.36"
       stroke-linecap="square"
       stroke-linejoin="bevel"
       d="M 6.44269,9.82748 C 1.78431,9.82748 -0.057109,3.24915 0.00134556,0" />
    <path
       id="shape401"
       transform="translate(145.18181,179.49243)"
       fill="none"
       stroke="#0f1c3e"
       stroke-width="3.36"
       stroke-linecap="square"
       stroke-linejoin="bevel"
       d="M 0,5.87072 C 3.28808,1.37014 5.62868,1.79875 8.68661,0" />
    <path
       id="shape411"
       transform="translate(148.4577,165.39533)"
       fill="none"
       stroke="#0f1c3e"
       stroke-width="3.36"
       stroke-linecap="square"
       stroke-linejoin="bevel"
       d="M 0,0 C 2.30893,0.644123 5.61824,2.29909 6.01806,5.09778" />
    <path
       id="shape42"
       transform="translate(121.21568,79.009206)"
       fill="none"
       stroke="#0f1c3e"
       stroke-width="3.36"
       stroke-linecap="square"
       stroke-linejoin="bevel"
       d="M 14.5066,0 C 12.5201,3.68737 8.9915,5.49549 11.654,9.9563 24.0577,-3.0552 18.9833,15.2178 10.6786,33.2368 5.17373,40.1553 -9.52066,52.1502 9.26146,44.2237 c 1.94354,-0.6328 4.31644,-1.102 7.91364,1.5827 8.0689,1.1278 -2.0124,-12.0679 3.0182,-19.471 1.1304,-3.9938 4.1453,-9.3507 6.7911,-12.7536 2.4313,-6.13675 1.3364,-6.61186 -1.6407,-10.88233" />
    <path
       id="shape43"
       transform="translate(145.98937,91.82263)"
       fill="none"
       stroke="#0f1c3e"
       stroke-width="3.36"
       stroke-linecap="square"
       stroke-linejoin="bevel"
       d="M 19.3631,1.52292 C 19.9198,0.966152 11.6543,-0.309468 10.8973,0.0690404 3.6467,3.69427 9.74197,6.82306 13.5106,9.04996 22.6339,14.4409 9.62771,14.1249 3.2965,16.669 2.06041,25.7397 13.904,29.1872 6.18591,31.7599 4.18678,32.4263 -4.24477,35.578 2.68918,38.9005 21.772,48.0442 12.2687,31.0363 14.3388,23.7912 16.2341,17.1577 31.3944,25.0004 23.6696,8.53466 22.2731,5.1217 20.3039,2.21688 20.9826,2.44309" />
    <path
       id="shape021"
       transform="translate(52.389633,114.10491)"
       fill="none"
       stroke="#0f1c3e"
       stroke-width="3.36"
       stroke-linecap="square"
       stroke-linejoin="bevel"
       d="M 0,2.70512 C 14.3816,-5.96801 22.4219,8.99648 32.7772,8.90711 43.5426,9.14296 48.8265,-6.04579 63.254,3.01798" />
    <path
       id="shape44"
       transform="translate(113.04864,75.350895)"
       fill="none"
       stroke="#0f1c3e"
       stroke-width="3.36"
       stroke-linecap="square"
       stroke-linejoin="bevel"
       d="M 0,0.039588 C 0.435632,-0.396037 2.56063,2.90318 2.6905,3.09077" />
    <path
       id="shape45"
       transform="translate(54.053035,73.090822)"
       fill="none"
       stroke="#0f1c3e"
       stroke-width="3.36"
       stroke-linecap="square"
       stroke-linejoin="bevel"
       d="M 0,3.45701 C 0,2.64662 2.86454,0 3.39694,0" />
    <path
       id="shape47"
       transform="rotate(-4.9859671,1293.6916,-858.84182)"
       fill="none"
       stroke="#0f1c3e"
       stroke-width="3.12"
       stroke-linecap="square"
       stroke-linejoin="miter"
       stroke-miterlimit="2"
       d="M 1.06718,0 0,3.6524" />
    <path
       id="shape48"
       transform="rotate(3.0416608,-2007.2683,1763.3975)"
       fill="none"
       stroke="#0f1c3e"
       stroke-width="3.12"
       stroke-linecap="square"
       stroke-linejoin="miter"
       stroke-miterlimit="2"
       d="M 0,0 0.841721,3.89289" />
    <circle
       id="shape49"
       transform="translate(38.88,-6.48)"
       cx="0.12"
       cy="0.12"
       fill="none"
       stroke="#999999"
       stroke-width="3.12"
       stroke-linecap="square"
       stroke-linejoin="bevel"
       r="0.12" />
    <ellipse
       id="lefteyeoutline"
       transform="translate(43.492888,77.59582)"
       rx="12.84"
       ry="13.92"
       cx="12.84"
       cy="13.92"
       fill="none"
       stroke="#0f1c3e"
       stroke-width="3.36"
       stroke-linecap="square"
       stroke-linejoin="bevel" />
    <ellipse
       id="righteyeoutline"
       transform="translate(101.28,79.44)"
       rx="12.84"
       ry="13.92"
       cx="12.84"
       cy="13.92"
       fill="none"
       stroke="#0f1c3e"
       stroke-width="3.36"
       stroke-linecap="square"
       stroke-linejoin="bevel" />
  </g>
</svg>
